<svg xmlns="http://www.w3.org/2000/svg" viewBox="0 0 197.8 25"><path fill="#4a6cf7" d="M0 0a25 25 0 0 1 25 25H2a2 2 0 0 1-2-2Z"/><path fill="#4a6cf7" d="M136.53 430.44a25 25 0 0 1 25-25v23a2 2 0 0 1-2 2Z" opacity=".5" style="isolation:isolate" transform="translate(-130.53 -405.44)"/><path fill="#fff" d="M50.92 13.48h3.43v5.7a10.23 10.23 0 0 1-5.77 1.74c-4.38 0-7.58-3-7.58-7.14s3.2-7.15 7.66-7.15a7.53 7.53 0 0 1 6 2.51l-2.48 2.24a4.28 4.28 0 0 0-3.34-1.53 3.93 3.93 0 0 0 0 7.85 4.89 4.89 0 0 0 2.11-.45Zm16.29 1.26v5.91h-3.48v-1.38a3.21 3.21 0 0 1-3.14 1.56c-2.55 0-4-1.44-4-3.28s1.43-3.18 4.73-3.18h2.15c-.06-1.08-.79-1.69-2.26-1.69a5 5 0 0 0-2.89.92l-1.25-2.53a8.89 8.89 0 0 1 4.69-1.24c3.47 0 5.45 1.53 5.45 4.91Zm-3.74 2.49v-.92h-1.6c-1.2 0-1.63.43-1.63 1.08s.51 1.08 1.39 1.08a1.84 1.84 0 0 0 1.84-1.24Zm18.6-1.92a5.17 5.17 0 0 1-5.22 5.52 3.83 3.83 0 0 1-3.14-1.24v1.06h-3.56V6.08h3.73v4.85a4 4 0 0 1 3-1.1 5.14 5.14 0 0 1 5.19 5.48Zm-3.77 0a2.26 2.26 0 1 0-2.24 2.55 2.25 2.25 0 0 0 2.24-2.55Zm13.17-5.48v3.36a6.62 6.62 0 0 0-.84-.06 2.32 2.32 0 0 0-2.55 2.63v4.89h-3.74V10.01h3.56v1.27a4.35 4.35 0 0 1 3.57-1.45Zm1.75-2.99a2.06 2.06 0 0 1 2.28-2 2 2 0 0 1 2.27 1.93 2.29 2.29 0 0 1-4.55 0Zm.41 3.17h3.73v10.64h-3.73Zm17.55 6.26h-7.71a2.45 2.45 0 0 0 2.61 1.71 3.42 3.42 0 0 0 2.45-.92l2 2a5.77 5.77 0 0 1-4.54 1.73c-3.79 0-6.24-2.34-6.24-5.52s2.49-5.48 5.85-5.48c3.14 0 5.69 2 5.69 5.52-.05.31-.09.67-.11.96Zm-7.79-2h4.36a2.21 2.21 0 0 0-4.36 0Zm10.17-8.19h3.73v14.57h-3.73Zm16.13 3.91h-4.22V6.9h12.31v3.09h-4.2v10.66h-3.89Zm8.21 5.32c0-3.2 2.53-5.48 6-5.48s6 2.28 6 5.48-2.5 5.52-6 5.52-6-2.27-6-5.52Zm8.25 0a2.26 2.26 0 1 0-2.24 2.55 2.25 2.25 0 0 0 2.24-2.55Zm6.08-9.23h3.73v14.57h-3.73Zm17.55 10.19h-7.73a2.45 2.45 0 0 0 2.61 1.71 3.42 3.42 0 0 0 2.45-.92l2 2a5.78 5.78 0 0 1-4.54 1.73c-3.79 0-6.24-2.34-6.24-5.52s2.49-5.48 5.85-5.48c3.14 0 5.69 2 5.69 5.52-.03.31-.07.67-.09.96Zm-7.79-2h4.36a2.21 2.21 0 0 0-4.36 0Zm21.48-8.19v14.57h-3.56v-1.09a3.84 3.84 0 0 1-3.12 1.24 5.51 5.51 0 0 1 0-11 3.84 3.84 0 0 1 2.94 1.1V6.05Zm-3.68 9.23a2.25 2.25 0 1 0-2.22 2.55 2.24 2.24 0 0 0 2.22-2.55Zm5.99 0c0-3.2 2.53-5.48 6-5.48s6 2.28 6 5.48-2.5 5.52-6 5.52-6-2.27-6-5.52Zm8.25 0a2.26 2.26 0 1 0-2.24 2.55 2.25 2.25 0 0 0 2.24-2.55Z"/></svg>